# xmcd CD database file
#
# Track frame offsets:
#	150
#	17234
#	31631
#	47100
#	62406
#	77174
#	97369
#	110921
#	127705
#	141006
#	158881
#	177316
#	187785
#	205302
#	220781
#	234928
#	249811
#	262075
#	278529
#	298140
#	315840
#
# Disc length: 4248 seconds
#
# Revision: 0
# Processed by: cddbd v1.5.2PL0 Copyright (c) Steve Scherf et al.
# Submitted via: CDex 1.51
#
DISCID=20109615
DTITLE=Tom McGUINNESS - Playing For Time
DYEAR=2017
DGENRE=Blues
TTITLE0=Long Hard Road
TTITLE1=Momma Tried To Tell Me
TTITLE2=That's The Blues
TTITLE3=I Got My Eye On You
TTITLE4=I Got A Right To Sing The Blues
TTITLE5=Sweet Temptation
TTITLE6=Ain't It A Drag
TTITLE7=Standing By My Window
TTITLE8=The Line To Heaven
TTITLE9=Heading For A Breakdown
TTITLE10=Midnight
TTITLE11=Till I Fall Down
TTITLE12=The Wrong Woman
TTITLE13=How Lucky Can One Man Be
TTITLE14=Done Got Over You
TTITLE15=When Love Comes Calling
TTITLE16=Make Up Your Mind
TTITLE17=Odd Job Man
TTITLE18=Losing You Put The Blues In Me
TTITLE19=Laura Lee
TTITLE20=Long Gone
EXTD=YEAR: 2017
EXTT0=
EXTT1=
EXTT2=
EXTT3=
EXTT4=
EXTT5=
EXTT6=
EXTT7=
EXTT8=
EXTT9=
EXTT10=
EXTT11=
EXTT12=
EXTT13=
EXTT14=
EXTT15=
EXTT16=
EXTT17=
EXTT18=
EXTT19=
EXTT20=
PLAYORDER=
